<svg xmlns="http://www.w3.org/2000/svg" version="1.1" xmlns:xlink="http://www.w3.org/1999/xlink" width="2000" height="300" viewBox="0 0 2000 300"><svg xml:space="preserve" width="2000" height="300" data-version="2" data-id="lg_FIpbuXTqECeO8vqNBR" viewBox="0 0 271 300" x="0" y="0"><rect width="100%" height="100%" fill="transparent"></rect><path fill="#e41f06" d="M89.745 295.77V79.95h-35.64V3.23h162.86v76.72h-35.15v215.82Zm8.42-8.91h75.24V71.04h35.64v-58.9H62.525v58.9h35.64Zm4.45-4.45V66.59h-35.64v-50h137.61v50h-35.64v215.82Z"></path><rect width="162.86" height="292.54" x="-81.43" y="-146.27" fill="none" rx="0" ry="0" transform="translate(136.03 150)"></rect><path fill="#111" d="M15.505 145.24v24.46h-3.89v-24.46h-9.09v-3.2h22.07v3.2Z"></path><rect width="22.07" height="27.66" x="-11.04" y="-13.83" fill="none" rx="0" ry="0" transform="translate(14.06 156.37)"></rect><path fill="#111" d="m51.085 169.7-7.5-11.79h-4.88v11.79h-3.92v-27.66h9.89q4.77 0 7.28 1.98 2.5 1.98 2.5 5.67 0 3.05-1.92 5.14-1.92 2.1-5.14 2.63l8.21 12.24Zm-.57-19.95q0-4.58-6.23-4.58h-5.58v9.64h5.74q2.93 0 4.5-1.31 1.57-1.31 1.57-3.75"></path><rect width="20.82" height="27.66" x="-10.41" y="-13.83" fill="none" rx="0" ry="0" transform="translate(45.7 156.37)"></rect><path fill="#111" d="M85.055 155.74q0 6.91-2.72 10.64-2.72 3.73-7.8 3.73-5.11 0-7.8-3.67-2.68-3.67-2.68-10.7 0-6.91 2.66-10.52 2.67-3.61 7.86-3.61 5.06 0 7.77 3.55 2.71 3.56 2.71 10.58m-4.13 0q0-10.93-6.35-10.93-6.4 0-6.4 10.93 0 5.53 1.62 8.36 1.62 2.83 4.76 2.83 3.34 0 4.86-2.87 1.51-2.87 1.51-8.32"></path><rect width="21" height="28.5" x="-10.5" y="-14.25" fill="none" rx="0" ry="0" transform="translate(75.06 156.36)"></rect><path fill="#111" d="m109.595 169.7-10.66-23.17q.33 3.53.33 5.21v17.96h-3.49v-27.66h4.56l10.82 23.34q-.37-2.96-.37-5.62v-17.72h3.53v27.66Z"></path><rect width="18.54" height="27.66" x="-9.27" y="-13.83" fill="none" rx="0" ry="0" transform="translate(105.55 156.37)"></rect><path fill="#111" d="M122.845 174.21v-1.96h25.39v1.96Z"></path><rect width="25.39" height="1.96" x="-12.7" y="-.98" fill="none" rx="0" ry="0" transform="translate(136.04 173.73)"></rect><path fill="#111" d="M156.405 169.7v-2.4q1-2.23 3.12-4.5 2.13-2.26 5.78-5.18 3.26-2.6 4.69-4.53 1.44-1.93 1.44-3.71 0-2.28-1.42-3.51-1.41-1.23-4.04-1.23-2.34 0-3.78 1.28-1.45 1.29-1.71 3.6l-3.78-.35q.41-3.48 2.85-5.52 2.44-2.04 6.42-2.04 4.37 0 6.81 1.97 2.44 1.96 2.44 5.57 0 2.36-1.56 4.71t-4.65 4.81q-4.23 3.36-5.86 4.95-1.63 1.59-2.3 3.09h14.82v2.99Z"></path><rect width="19.27" height="28.09" x="-9.63" y="-14.04" fill="none" rx="0" ry="0" transform="translate(166.54 156.16)"></rect><path fill="#111" d="M206.565 155.86q0 6.93-2.55 10.59-2.56 3.66-7.54 3.66t-7.49-3.64q-2.5-3.64-2.5-10.61 0-7.16 2.44-10.71 2.44-3.54 7.67-3.54 5.11 0 7.54 3.58 2.43 3.57 2.43 10.67m-3.75 0q0-5.95-1.45-8.6-1.45-2.66-4.77-2.66-3.4 0-4.89 2.63-1.49 2.62-1.49 8.63 0 5.84 1.51 8.54 1.51 2.7 4.79 2.7 3.26 0 4.78-2.77 1.52-2.77 1.52-8.47m-8.7 2.46v-5.11h4.82v5.11Z"></path><rect width="20.08" height="28.5" x="-10.04" y="-14.25" fill="none" rx="0" ry="0" transform="translate(197.03 156.36)"></rect><path fill="#111" d="M237.055 155.86q0 6.93-2.55 10.59t-7.54 3.66q-4.98 0-7.48-3.64t-2.5-10.61q0-7.16 2.44-10.71 2.44-3.54 7.67-3.54 5.1 0 7.53 3.58 2.43 3.57 2.43 10.67m-3.75 0q0-5.95-1.44-8.6-1.45-2.66-4.77-2.66-3.41 0-4.89 2.63-1.49 2.62-1.49 8.63 0 5.84 1.51 8.54 1.5 2.7 4.79 2.7 3.26 0 4.77-2.77 1.52-2.77 1.52-8.47m-8.69 2.46v-5.11h4.82v5.11Z"></path><rect width="20.07" height="28.5" x="-10.04" y="-14.25" fill="none" rx="0" ry="0" transform="translate(227.52 156.36)"></rect><path fill="#111" d="M267.475 162.11q0 3.82-2.59 5.91-2.58 2.09-7.21 2.09-4.39 0-7.02-1.99-2.62-1.99-3.09-5.84l3.81-.35q.74 5.13 6.3 5.13 2.79 0 4.37-1.3 1.59-1.29 1.59-3.77 0-1.54-.93-2.59-.93-1.06-2.53-1.62-1.6-.57-3.59-.57h-2.09v-3.2h2.01q1.76 0 3.23-.58 1.46-.59 2.3-1.65.85-1.07.85-2.52 0-2.18-1.37-3.4-1.36-1.22-4.05-1.22-2.44 0-3.95 1.25-1.5 1.25-1.75 3.53l-3.71-.29q.41-3.55 2.94-5.53 2.53-1.99 6.51-1.99 4.35 0 6.76 1.91 2.41 1.92 2.41 5.35 0 2.44-1.62 4.24-1.62 1.81-4.43 2.38v.08q3.1.35 4.97 2.18 1.88 1.82 1.88 4.36"></path><rect width="19.91" height="28.5" x="-9.96" y="-14.25" fill="none" rx="0" ry="0" transform="translate(258.02 156.36)"></rect></svg></svg>