<svg xmlns="http://www.w3.org/2000/svg" version="1.1" xmlns:xlink="http://www.w3.org/1999/xlink" width="2000" height="571" viewBox="0 0 2000 571"><svg xml:space="preserve" width="2000" height="571" data-version="2" data-id="lg_FIpbuXTqECeO8vqNBR" viewBox="0 0 480 571" x="0" y="0"><rect width="100%" height="100%" fill="transparent"></rect><rect width="418.38" height="497.35" x="-209.19" y="-248.68" fill="#535353" rx="10" ry="10" transform="translate(240 285.5)scale(1.1237)"></rect><path fill="#f6f6f6" d="M455.765 244.62c0 70.64-.016 141.28.056 211.92 0 2.842-1.504 2.739-3.406 2.739q-34.477-.01-68.96-.005H30.392c-.605 0-1.21-.036-1.81 0-1.938.129-2.656-.605-2.656-2.693.057-141.191.057-282.388.062-423.58 0-2.91.662-3.602 3.603-3.731 1.028-.047 2.067-.01 3.101-.01H449.78c.863 0 1.726-.037 2.584.02 2.781.176 3.391.848 3.391 3.686v211.66zm-3.712-211.928H29.783v422.855h422.27z"></path><path fill="#f6f6f6" d="M444.476 243.33v199.25c0 6.372-.04 6.414-6.456 6.414H42.354c-4.73 0-4.264.377-5.086-4.926-.078-.507-.01-1.034-.01-1.55V44.54c0-.687.025-1.38 0-2.067-.052-1.458.547-2.295 2.088-2.31 1.716-.016 3.437-.068 5.153-.068h392.28q7.697 0 7.692 7.619v195.631Zm-3.272 201.916V46.94q0-3.557-3.68-3.557H43.972q-3.437 0-3.437 3.278v398.586z"></path><path fill="#f6f6f6" d="M431.945 244.108v183.5c0 1.809.108 3.618.062 5.422-.036 1.41-.46 2.414-2.28 2.414-49.245-.052-98.49-.078-147.735-.031-3.908 0-7.33-.822-10.705-2.895-7.33-4.497-14.84-8.694-22.325-12.933-.982-.553-2.217-.785-3.36-.889-1.447-.13-2.967.28-4.378.016-5.226-.972-9.454 1.147-13.708 3.794-5.696 3.54-11.687 6.6-17.368 10.167-3.215 2.021-6.518 2.74-10.23 2.735-44.08-.052-88.162-.032-132.243-.032-5.164 0-10.333-.082-15.491.063-1.96.056-2.44-.92-2.476-2.46-.042-1.893.062-3.79.062-5.687V57.71c0-5.01.568-5.567 5.69-5.567 47.524 0 95.053-.021 142.577.072 2.021 0 4.244.677 6.022 1.67 9.61 5.375 19.084 10.994 28.673 16.406 1.405.796 3.163 1.096 4.802 1.328 6.414.91 11.96-1.08 17.393-4.569 7.666-4.92 15.704-9.263 23.643-13.744a8.787 8.787 0 0 1 4.125-1.112c48.129-.056 96.257-.051 144.386-.041 4.01 0 4.853.879 4.853 4.849v187.117ZM428.32 55.682h-1.985c-47.694 0-95.388-.005-143.078.042-1.126 0-2.372.393-3.36.95-8.895 5.061-17.858 10.024-26.563 15.394-3.944 2.435-7.991 3.23-12.452 3.23-4.46 0-8.508-.775-12.457-3.22-8.555-5.293-17.353-10.193-26.12-15.134a9.821 9.821 0 0 0-4.574-1.215c-47.177-.062-94.355-.052-141.527-.052h-2.693v376.226h2.435c48.81 0 97.626.01 146.437-.036 1.132 0 2.378-.367 3.37-.926 6.74-3.804 13.559-7.5 20.082-11.656a24.966 24.966 0 0 1 14.52-4.093c5.412.108 10.369.666 15.12 3.799 6.522 4.3 13.464 7.97 20.287 11.806a8.27 8.27 0 0 0 3.846 1.06c48.64.051 97.28.04 145.921.04h2.807V55.683Z"></path><path fill="#f6f6f6" d="M191.817 96.51c5.375 3.225 10.477 4.29 16.422.49 9.542-6.094 19.554-11.454 29.36-17.14 2.202-1.277 4.347-1.277 6.549 0 9.805 5.686 19.818 11.046 29.36 17.14 5.944 3.8 11.04 2.73 16.422-.49.666-.094 1.338-.15 1.995-.29 3.432-.75 6.849-1.613 10.307-2.223.806-.14 1.757.553 2.641.869-.496.806-.956 1.638-1.51 2.398-.17.233-.64.222-.925.393-4.755 2.884-9.516 5.763-14.245 8.7-.486.304-.76.95-1.194 1.524 7.707 1.866 17.135-2.677 21.182-9.96.388-.698.946-1.515 1.623-1.804 2.207-.93 3.407-.031 3.38 2.801-.082 9.139 3.583 16.867 8.824 24.005 1.034 1.411 2.399 2.574 3.608 3.856l.951-.13c.553-2.351 1.453-4.682 1.592-7.06.626-10.674-4.977-18.459-12.322-25.266-1.169-1.08-1.267-1.861-.626-3.055 1.251-2.32 2.838-1.034 4.394-.434 5.19 1.99 10.255 4.6 15.626 5.743 4.75 1.008 9.914.883 14.783.31 4.347-.517 4.755-2.58 1.871-5.764a24.811 24.811 0 0 0-2.233-2.14c-10.741-9.175-28.522-11.335-41.336-3.706-6.172 3.67-12.24 7.516-18.355 11.279-2.042.196-4.115.232-6.115.625-2.864.564-5.133-.548-7.48-1.928-8.007-4.714-16.07-9.32-24.103-13.987-2.9-1.685-2.998-3.344-.098-5.04a2198.893 2198.893 0 0 1 27.721-15.967c1.055-.6 2.45-.837 3.69-.842 45.286-.042 90.567-.037 135.852-.031 3.841 0 4.198.511 4.198 5.2v355.86c0 .863.057 1.736-.068 2.579-.48 3.246-1.26 3.897-4.507 3.897q-68.96.026-137.914-.005c-1.054 0-2.238-.274-3.148-.79-7.63-4.338-15.212-8.747-22.795-13.156-3.412-1.985-3.427-3.737-.062-5.686 6.471-3.753 12.912-7.578 19.487-11.144 1.23-.667 3.386-.9 4.523-.269 8.606 4.766 18.133 5.975 27.587 6.957 8.958.93 18.019.93 27.034 1.153 5.08.124 9.893-1.297 14.333-3.711a70.298 70.298 0 0 1 23.592-7.795c13.899-2.062 26.088-12.98 26.682-29.329.165-4.616-2.554-10.984-6.86-14.788-1.364 3.096-3.028 5.934-3.87 8.999-1.784 6.456-3.076 13.041-4.694 19.544-.486 1.959-1.08 4.021-2.171 5.665-1.106 1.664-3.014 1.142-3.38-.827-1.453-7.8-7.19-12.06-13.228-15.957-2.404-1.55-5.231-2.434-8.369-3.845.972 7.014 2.357 13.134 7.366 17.74 1.835 1.685 3.737 3.303 5.65 4.9 1.333 1.111 1.752 2.269.041 3.261-1.747 1.013-3.618 1.825-5.474 2.642-2.491 1.1-5.102 1.964-7.505 3.23-3.422 1.8-5.36 1.479-7.34-1.835-.92-1.54-1.556-3.25-2.347-4.874a16.592 16.592 0 0 0-14.913-9.315c-.31 4.44.533 8.597 3.53 11.936 1.805 2.01 4.26 3.427 6.307 5.246.651.58.925 1.587 1.375 2.399-.962.263-2.052.961-2.848.713-1.784-.553-3.401-1.628-5.123-2.398-4.517-2.032-9.16-3.267-14.99-2 1.846 1.488 3.272 2.5 4.523 3.7.657.63 1.003 1.592 1.489 2.404-.848.46-1.722 1.354-2.549 1.313-5.23-.233-10.493-.357-15.656-1.138-4.487-.677-7.465-3.783-9.03-8.017-2.844-7.68-2.084-15.238 1.245-22.578 1.773-3.908 3.029-7.893.687-11.827-1.168-1.953-3.282-3.344-4.967-4.993-1.38 1.442-2.972 2.74-4.099 4.358-3.722 5.344-2.941 11.33-1.902 17.212.393 2.223 1.215 4.497 2.367 6.436 1.928 3.24 2.812 6.596 2.59 10.328-.217 3.592-3.184 5.603-6.497 4.145-1.474-.646-2.76-1.716-4.1-2.646-2.553-1.773-4.843-2.037-7.794-.259-10.602 6.4-21.405 12.468-32.126 18.676-1.886 1.09-3.721 1.09-5.603-.005-11.077-6.446-22.17-12.866-33.231-19.343-2.099-1.23-3.98-.698-5.816.393-1.4.832-2.625 1.964-4.042 2.765-3.907 2.218-7.252.207-7.443-4.254-.16-3.68.905-6.89 2.77-10.017 3.603-6.032 4.86-18.908-1.178-25.876-1.918-2.218-2.497-2.414-4.771-.543-4.342 3.572-5.236 8.844-2.424 14.742 3.018 6.337 4.057 12.938 2.595 19.839-.905 4.259-2.678 8.084-6.761 10.177-1.551.796-3.376 1.236-5.123 1.427-4.006.445-8.038.646-12.054.94-.688.052-1.437.27-2.047.068-.827-.274-1.959-.74-2.176-1.385-.191-.564.543-1.67 1.147-2.228 1.298-1.2 2.781-2.197 4.518-3.536-3.324-1.556-6.218-.94-8.932-.232-2.879.754-5.608 2.103-8.384 3.225-.956.388-1.84 1.137-2.807 1.23-.842.083-1.747-.527-2.626-.832.373-.775.564-1.763 1.158-2.274 1.494-1.277 3.257-2.233 4.76-3.494 4.234-3.552 5.423-8.317 5.423-13.574-5.872-.719-12.343 3.35-15.166 9.314-.878 1.861-1.68 3.794-2.822 5.49-1.561 2.32-3.308 2.558-5.83 1.468-3.676-1.597-7.413-3.055-11.12-4.585-.63-.259-1.312-.47-1.855-.863-2.662-1.934-2.662-2.74 0-4.735 6.467-4.86 10.834-10.995 11.796-19.224.062-.511.17-1.023.201-1.535.016-.238-.093-.486-.186-.915-8.818 2.683-15.74 7.655-20.252 15.72-.563 1.007-.527 2.336-.972 3.431-.294.724-.852 1.685-1.462 1.835-.636.15-1.861-.351-2.15-.915a24.294 24.294 0 0 1-1.944-5.246c-1.515-6.265-2.698-12.612-4.41-18.82-.935-3.396-2.682-6.565-4.228-10.214-5.68 6.068-7.53 12.297-6.29 19.91 2.026 12.442 13.811 22.93 26.403 24.517a63.062 63.062 0 0 1 22.65 7.376c4.839 2.642 10.008 3.944 15.544 4.14 14.003.502 27.855-.76 41.517-3.69 4.063-.874 7.96-2.667 11.816-4.31 2.1-.895 3.784-.973 5.795.232 6.342 3.804 12.798 7.417 19.198 11.134q4.6 2.677-.068 5.417a2160.642 2160.642 0 0 1-23.022 13.284c-.91.517-2.094.791-3.148.791-45.715.031-91.43.016-137.139.01-4.399 0-5.324-.904-5.334-5.453-.026-11.63-.01-23.26-.01-34.886 0-106.729.01-213.464-.027-320.193 0-6.973-.517-7.025 7.066-7.02 43.994.026 87.987-.005 131.975.083 2.037 0 4.29.584 6.069 1.571 8.348 4.627 16.566 9.485 24.832 14.267.744.429 1.524.827 2.191 1.354q3.05 2.398-.315 4.368c-7.06 4.114-14.142 8.193-21.214 12.281-.672.388-1.41.688-2 1.169-4.15 3.36-8.818 3.235-13.657 2.14-.403-.093-.842-.037-1.266-.052q-7.609-4.74-15.217-9.5c-6.24-3.908-12.876-6.441-20.377-6.4-9.578.057-18.127 2.827-25.22 9.392-1.302 1.21-2.077 2.993-3.095 4.507 1.866.962 3.69 2.637 5.603 2.74 4.337.233 8.777.078 13.062-.62a43.937 43.937 0 0 0 16.075-6.048c1.225-.76 2.724-1.375 3.82.403.946 1.54.367 2.342-.94 3.593-5.599 5.35-10.375 11.356-11.641 19.311-.693 4.332-.848 8.71 2.078 13.057 1.411-1.489 2.776-2.662 3.815-4.068 5.318-7.206 8.957-15.037 8.87-24.263-.01-.915.811-2.574 1.323-2.606 1.075-.062 2.801.42 3.21 1.215 2.295 4.482 6.244 7.066 10.358 9.403 3.464 1.964 7.278 2.103 11.393.904a4.652 4.652 0 0 0-1.721-1.571c-4.699-2.812-9.439-5.557-14.08-8.462-.936-.584-1.495-1.773-2.223-2.683 1.054-.274 2.165-.92 3.148-.754 3.954.661 7.872 1.576 11.8 2.398Zm65.506 313.608c7.857 4.528 15.358 8.875 22.904 13.16.61.346 1.479.326 2.228.33q67.668.032 135.335.032c.662 0 1.323-.098 2.047-.155V63.015h-3.5c-42.96 0-85.919.025-128.878-.058-3.562-.005-6.71.538-9.718 2.554-3.138 2.098-6.528 3.825-9.8 5.722l-12.949 7.51c8.834 5.102 17.311 10.008 25.814 14.872.48.274 1.148.263 1.737.32 4.771.486 8.632-1.654 12.437-4.16 4.522-2.978 8.952-6.209 13.796-8.56 13.553-6.57 26.9-5.252 39.59 2.46 2.94 1.783 5.406 4.507 7.711 7.133 2.15 2.455 1.81 5.184-.915 6.885-2.248 1.406-4.91 2.533-7.515 2.9-6.11.858-12.179.114-18.076-1.794-2.032-.656-4.09-1.225-6.772-2.016.858 1.024 1.246 1.468 1.618 1.934 4.699 5.918 7.51 12.607 7.252 20.215-.098 2.926-.946 5.955-2.078 8.68-1.292 3.111-3.205 3.395-5.975 1.457-.982-.682-2.057-1.406-2.698-2.373-2.647-4-5.526-7.919-7.588-12.22-1.846-3.845-2.73-8.156-4.074-12.374-.351.414-.806 1.04-1.349 1.572-5.742 5.608-12.333 9.087-20.64 7.846-1.437-.212-3.483-.708-3.959-1.695-.476-.988.336-3.024 1.2-4.11 1.457-1.835 3.4-3.287 5.66-5.386-1.862.714-3.097 1.261-4.374 1.665-3.422 1.075-7.092 1.767-10.276 0-11.123-6.188-22.092-12.66-33.07-19.1-1.252-.734-2.09-.6-3.247.083-10.028 5.851-20.2 11.47-30.11 17.518-4.93 3.008-9.655 2.91-14.695.894-.718-.29-1.458-.522-2.104-.75 1.995 2.202 4.203 4.156 5.79 6.524 1.545 2.305.765 3.866-1.928 4.192-5.898.713-11.729.62-16.753-3.293-2.481-1.933-4.931-3.903-7.454-5.908-.062.196-.17.408-.196.63-.982 9.532-5.185 17.606-11.553 24.543-4.197 4.575-7.356 3.727-9.17-2.192-2.016-6.575-1.096-12.99 1.845-19.068 1.52-3.138 3.562-6.027 5.418-9.103-.548.155-1.179.3-1.784.507-6.973 2.378-14.05 3.928-21.508 3.303-3.37-.285-6.44-1.05-8.953-3.417-1.845-1.737-2.227-3.975-.77-6.042a28.946 28.946 0 0 1 3.887-4.456c11.465-10.705 32.265-12.886 45.301-4.937 4.916 2.998 9.672 6.265 14.582 9.268 5.086 3.112 10.26 4.265 15.6.342 1.789-1.318 3.867-2.244 5.8-3.365 5.34-3.091 10.669-6.193 16.308-9.47-9.04-5.216-17.735-10.27-26.486-15.212-.894-.507-2.16-.47-3.251-.47q-66.117-.027-132.234-.016h-2.89v360.636h3.47c42.013 0 84.027-.12 126.035.124 6.616.036 12.395-1.09 17.9-4.802 4.756-3.205 9.894-5.841 15.099-8.865-6.461-3.758-12.602-7.392-18.83-10.855-.766-.424-2.12-.16-3.066.176-3.148 1.121-6.14 2.78-9.356 3.587-12.643 3.184-25.555 4.425-38.566 4.766a53.086 53.086 0 0 1-26.78-6.306 47.555 47.555 0 0 0-15.089-4.885c-10.643-1.561-19.352-5.856-26.253-14.277-8.265-10.085-8.482-25.845.047-35.65.563-.652 1.524-1.086 2.382-1.334 3.066-.89 4.058 1.515 5.16 3.515 3.953 7.18 5.587 15.12 7.324 23.012l.92 4.25c1.69-2.156 3.101-4.105 4.667-5.914 4.75-5.48 10.7-9.129 17.632-11.16 2.305-.672 4.884.688 4.662 2.543-.9 7.599-2.367 15.011-8.327 20.583-1.427 1.334-2.833 2.698-4.471 4.26 2.744.837 5.22 1.509 7.634 2.362 1.866.661 4.12 2.605 5.355 2.057 1.463-.646 2.016-3.355 2.973-5.164 3.639-6.885 9.133-11.093 17.062-11.625 2.993-.202 4.322.718 4.14 3.484-.268 4.213-1.131 8.384-1.726 12.493 1.784-.134 4.25-.398 6.72-.465 1.272-.036 2.585.155 3.815.476 3.35.873 3.665 2.569 1.333 6.73h7.134c4.962-.005 8.1-2.249 9.578-7 2.067-6.641 1.395-13.113-1.587-19.326-3.593-7.48-2.523-14.587 3.05-19.265 3.644-3.06 6.626-2.73 9.588 1.055 6.012 7.68 6.828 21.306 1.871 29.752-.9 1.536-1.721 3.22-2.073 4.942-.304 1.473.114 3.091.212 4.647 1.344-.605 2.828-1.008 4.001-1.85 3.034-2.161 6.24-3.459 9.899-2.146 1.571.564 2.9 1.778 4.378 2.636 8.332 4.833 16.897 9.315 24.935 14.598 4.544 2.987 7.878 2.812 12.339-.062 8.306-5.35 17.104-9.935 25.602-15 6.084-3.63 8.503-3.655 14.189.552.413.305.832.615 1.276.874 1.846 1.054 2.895.553 2.683-1.566-.207-2.016-.465-4.3-1.545-5.898-4.25-6.296-4.286-13.352-3.934-20.397.243-4.885 2.807-9.015 6.177-12.468 2.367-2.424 4.642-2.393 7.33-.387 6.388 4.755 7.887 12.023 4.037 19.828-2.482 5.024-3.2 10.338-2.538 15.827.708 5.857 3.757 9.997 8.027 10.488 3.163.367 6.404.073 9.733.073-.238-.352-.424-.62-.605-.9-2.083-3.194-1.338-5.091 2.394-5.903a14.388 14.388 0 0 1 3.582-.325c2.347.093 4.693.34 6.663.496-.755-3.469-1.753-6.854-2.171-10.307-.58-4.781 1.178-6.327 5.929-5.562 7.484 1.2 12.612 5.51 15.786 12.292.506 1.09.966 2.202 1.468 3.293.723 1.57 1.628 1.783 3.266.945 2.57-1.312 5.335-2.248 8.023-3.334.847-.34 1.71-.64 2.595-.971-.171-.316-.223-.486-.336-.61a6.72 6.72 0 0 0-.745-.714c-6.962-5.401-10.234-12.72-11.196-21.306-.49-4.383 1.225-5.877 5.485-4.456 8.554 2.859 15.284 8.09 20.226 15.631.238.362.584.652.977 1.08.847-3.794 1.56-7.324 2.44-10.818 1.597-6.343 3.225-12.69 6.962-18.216 1.385-2.052 4.446-2.662 5.908-.816 3.138 3.97 6.317 8.043 6.787 13.377.45 5.122.057 10.255-1.943 14.985-5.05 11.925-14.184 19.13-26.88 21.25-7.639 1.276-14.963 3.132-21.72 6.947-6.316 3.566-13.165 5.107-20.324 4.874-8.498-.274-17.032-.537-25.457-1.56-9.01-1.092-18.128-2.218-26.31-6.793-.77-.429-2.233-.305-3.045.145-6.079 3.396-12.075 6.942-18.546 10.7Z"></path><path fill="#f6f6f6" d="M335.832 297.92c6.115 7.463 5.82 16.075 5.81 24.748a119.404 119.404 0 0 0 1.401 17.678c.879 5.862-1.018 7.904-7.257 8.452-.507.046-1.096.082-1.535-.124-6.85-3.215-14.205-2.042-21.338-2.249-7.764-.222-14.272-2.714-19.735-8.694-1.721 6.332-6.317 9.077-11.915 10.69-4.047 1.162-7.577-.393-11.19-1.856-4.922-1.985-9.904-3.81-14.861-5.702a1.55 1.55 0 0 0-.502-.119c-9.945.12-19.91-.051-29.825.543-3.344.202-6.59 2.316-9.852 3.629-1.432.574-2.807 1.302-4.192 1.995-6.75 3.386-12.918 2.135-18.35-2.708-1.768-1.577-2.853-3.913-4.218-5.847-1.789 1.38-3.82 3.097-6.001 4.596-5.035 3.463-10.938 3.22-16.655 3.654-1.452.109-2.946.15-4.383-.052-3.768-.532-7.278.249-10.891 1.287a17.575 17.575 0 0 1-7.542.362c-3.406-.558-4.548-2.491-4.285-5.913.083-1.111.28-2.223.527-3.313 1.479-6.451 1.34-12.97 1.065-19.524-.31-7.593.403-15.01 5.784-21.472-.853-.201-1.375-.305-1.892-.45-4.724-1.302-8.14-5.36-7.996-10.477.103-3.634.62-7.433 1.86-10.824 3.909-10.679 5.909-21.715 5.066-32.932-.615-8.161-2.946-16.2-4.62-24.268-.735-3.53-1.856-6.978-2.6-10.509-1.329-6.29.945-11.123 6.29-14.576.558-.362 1.122-.703 1.825-1.143-6.72-5.835-8.338-13.61-8.23-21.782.12-8.761.838-17.512 1.283-26.263.087-1.747.94-2.693 2.724-2.76 5.127-.192 10.286-.114 15.377-.652 11.822-1.25 22.718 1.055 32.824 7.79 1.773-5.252 5.06-8.984 10.462-10.431 3.98-1.07 7.872-.17 11.656 1.065 5.717 1.866 11.289 4.212 17.088 5.753 12.385 3.292 24.527 1.98 36.38-2.75 3.427-1.365 6.921-2.636 10.483-3.562 10.007-2.59 15.961.388 20.148 10.007 5.045-3.85 10.82-5.908 16.903-7.267 7.805-1.742 15.564-.657 23.348.15 2.28.238 4.611.082 6.911-.062 1.99-.124 3.505.258 3.624 2.564.48 9.185 1.204 18.37 1.246 27.556.015 4.037-.952 8.229-2.285 12.064-1.09 3.127-3.386 5.836-5.407 9.15-.202-.58-.196-.368-.098-.311 7.216 4.357 9.195 8.322 7.48 16.567-1.314 6.306-3.242 12.478-4.792 18.737-3.913 15.828-2.724 31.36 2.522 46.738a41.869 41.869 0 0 1 2.238 11.284c.295 6.146-3.308 10.147-9.893 11.522ZM140.413 145.402c-.274 5.014-.553 9.459-.754 13.91-.207 4.548-.585 9.102-.44 13.646.243 7.572 1.954 14.566 9.403 18.572.361.196.703.527.914.879.802 1.36-.077 3.24-1.514 3.328-6.389.393-10.302 5.226-9.087 11.486.682 3.536 1.84 6.978 2.605 10.498 1.675 7.718 3.985 15.394 4.678 23.204a81.67 81.67 0 0 1-5.05 36.53 33.599 33.599 0 0 0-1.81 7.49c-.718 5.494 2.75 9.34 8.287 9.484.687.02 1.447-.072 2.031.197.646.3 1.447.884 1.582 1.483.113.522-.527 1.292-.967 1.845-.63.796-1.437 1.453-2.067 2.249-4.306 5.38-5.288 11.8-4.797 18.303.589 7.713.336 15.28-1.19 22.847-.588 2.926.089 3.655 3.092 3.825.853.047 1.82.14 2.553-.19 5.991-2.694 12.328-2.032 18.573-1.924 8.327.145 15.372-2.352 20.727-8.973a7.237 7.237 0 0 1 2.399-1.856c.6-.29 1.643-.372 2.103-.026.42.31.373 1.313.45 2.022.197 1.752-.051 3.675.595 5.236 1.514 3.665 8.43 6.905 12.292 5.779a43.937 43.937 0 0 0 8.084-3.303c6.704-3.51 13.64-5.376 21.322-4.704 4.776.419 9.625-.052 14.437 0 2.91.03 5.996-.264 8.684.594 5.128 1.634 10.116 3.805 14.995 6.095 4.787 2.248 9.077 1.809 13.341-1.143 3.153-2.186 4.658-4.895 3.66-8.813-.46-1.799.672-2.734 2.362-1.814 1.53.832 2.854 2.145 4.084 3.422 3.97 4.109 8.513 6.947 14.416 7.086 4.296.104 8.601.088 12.886.393 2.874.207 5.717.905 8.576 1.354 1.685.27 3.38.709 5.06.667 2.088-.046 3.267-.956 2.683-3.494-1.763-7.697-1.789-15.466-1.303-23.348.481-7.795-.91-15.295-7.422-20.816-.336-.284-.135-1.876.325-2.28.615-.537 1.722-.666 2.631-.702 6.012-.223 9.558-4.125 8.415-10.002-.858-4.446-2.491-8.736-3.706-13.12-4.89-17.672-4.233-35.2 1.308-52.635a107.371 107.371 0 0 0 3.06-11.982c.977-5.014-3.846-11.336-8.193-11.268-.879.015-1.768-.678-2.651-1.045.418-1.013.558-2.553 1.302-2.946 5.53-2.926 8.307-7.955 8.575-13.636.502-10.591.01-21.234-.062-31.867-3.768-.222-6.942-.222-10.064-.625-9.133-1.173-18.241-1.644-26.977 1.871-3.37 1.354-6.414 3.53-9.573 5.391-.92.543-1.71 1.308-2.563 1.97-.585-1.024-1.53-1.99-1.69-3.076-.983-6.611-6.912-11.103-13.41-9.588a85.805 85.805 0 0 0-12.503 3.995c-16.184 6.529-32.275 6.524-48.464 0-4.13-1.664-8.447-2.915-12.752-4.078-3.06-.827-5.955.02-8.524 1.907-2.89 2.125-4.306 4.994-4.699 8.54-.088.816-.93 1.835-1.685 2.18-.44.202-1.463-.676-2.119-1.204-1.256-1.002-2.27-2.507-3.675-3.085-4.502-1.85-9.067-4.466-13.745-4.792-9.609-.672-19.306-.052-29.023.036ZM98.611 80.087c9.191 1.685 16.107 5.428 19.973 13.564 1.35 2.838 1.127 3.515-1.648 5.127-8.963 5.195-20.645 1.225-24.91-8.466-.377-.858-.723-1.722-1.085-2.585-4.776 1.949-8.648 8.41-7.32 12.39.941-.33 1.913-.6 2.823-1.008 3.153-1.41 6.347-1.328 9.573-.346 2.44.739 2.879 2.16 1.245 4.228-2.243 2.843-5.308 4.28-8.797 4.931-.998.186-1.985.398-2.854 1.205 2.554-.584 5.133-1.075 7.656-1.768 5.36-1.473 10.679-1.706 15.972.202 3.003 1.08 3.355 3.07.93 5.411-5.732 5.531-12.772 7.78-20.53 7.3-3.924-.244-7.775-1.557-11.957-2.451-1.328 8.792-.362 17.874 3.96 26.63.088-1.364.15-2.734.263-4.093.595-7.123 4.714-12.075 10.22-15.978 2.64-1.87 5.639-3.261 8.539-4.75 2.088-1.07 3.644-.398 4.507 1.81a18.453 18.453 0 0 1 .956 10.379 34.89 34.89 0 0 1-9.325 18.07c-.64.662-1.21 1.39-1.99 2.29 2.688.248 5.164.254 7.542.74 7.655 1.57 14.494 4.812 20.066 10.43 3.902 3.934 3.39 6.73-1.721 9.026-10.375 4.657-20.315 3.122-29.867-2.368-12.716-7.309-18.758-18.934-21.002-32.957a83.738 83.738 0 0 1 3.836-41.72c4.833-13.671 14.189-23.115 28.677-26.382 7.578-1.706 15.197-1.638 22.263 2.57 2.967 1.767 3.257 2.77 1.04 7.04-1.241 2.387-2.994 1.565-4.818.682-7.288-3.52-14.484-3.469-22.222.842Zm3.22 42.83c-1.359.616-2.558 1.091-3.7 1.68-10.752 5.531-14.262 12.432-12.38 23.866.165 1.018-.553 2.915-1.287 3.168-.982.342-2.89-.14-3.505-.95a26.879 26.879 0 0 1-3.587-6.508c-3.623-9.372-4.58-19.022-2.32-28.87.676-2.956 2.18-3.39 4.687-1.684 7.8 5.308 20.273 4.006 27.505-3.02-.708-.237-1.308-.495-1.933-.645-4.616-1.112-9.03-.042-13.445 1.225-4.466 1.282-8.803 1.385-12.814-1.53-1.763-1.282-1.747-2.895-1.034-4.575.786-1.855 2.223-.935 3.54-.63 4.374 1.002 8.416.356 12.21-2.549-2.817-.997-3.473-.703-7.097.714-1.51.589-3.639.666-5.091.051-1.908-.806-2.197-3.013-1.753-4.972 1.184-5.221 3.66-9.625 8.431-12.421 3.205-1.877 5.174-1.132 6.503 2.445 1.886 5.07 5.484 8.301 10.71 9.495 3.51.801 6.942.352 10.224-1.892-.765-1.282-1.318-2.46-2.099-3.458-4.295-5.495-9.909-8.27-16.938-8.358-1.101-.016-2.699-.894-3.117-1.804-.32-.703.548-2.492 1.395-3.107 3.856-2.812 7.997-4.895 13.016-4.957 5.2-.062 10.26.186 15.202 2.77.015-.935-.124-2.046-.584-2.201-3.226-1.08-6.498-2.678-9.795-2.781-15.358-.47-26.817 6.477-33.527 20.128-7.035 14.313-8.254 29.701-5.82 45.353 1.938 12.457 7.273 22.914 18.484 29.608 6.12 3.654 12.675 5.99 19.89 4.797 3.381-.559 6.612-2.011 10.127-3.128-.553-.95-.682-1.271-.894-1.524-6.896-8.41-21.276-12.768-31.707-9.76-.992.29-2.869.042-3.262-.61-.915-1.498.497-2.222 1.742-3.06 7.335-4.92 12.638-11.408 14.375-20.262.63-3.2 1.494-6.565-.362-10.049Zm285.252 29.48c-1.432-1.686-2.481-3.02-3.639-4.255-4.647-4.962-7.128-11.01-7.934-17.58-.373-3.018.537-6.254 1.22-9.314.46-2.068 2.202-2.538 4.099-1.757 6.15 2.522 11.542 6.11 15.59 11.5 2.987 3.986 3.556 8.654 3.814 13.471 4.275-8.637 5.02-17.745 3.877-26.713-4.001.889-7.826 2.227-11.729 2.507-7.448.527-14.375-1.365-19.983-6.617-1.086-1.013-2.099-2.646-2.135-4.021-.02-.76 1.949-1.887 3.205-2.31 4.781-1.624 9.63-1.35 14.473-.068 2.709.719 5.459 1.292 8.322 1.334-1.737-.398-3.644-.476-5.174-1.267-2.388-1.235-4.76-2.708-6.694-4.548-1.737-1.655-1.034-3.267 1.303-3.975 3.225-.977 6.42-1.08 9.573.336.915.408 1.886.687 2.827 1.018 1.38-3.898-2.455-10.349-7.376-12.452a18.763 18.763 0 0 1-7.33 10.265c-5.54 3.913-13.589 4.125-19.239.476-1.742-1.127-2.202-2.3-1.282-4.29 3.49-7.557 10.4-12.525 19.767-14.267-1.551-.75-3.03-1.804-4.668-2.197-5.825-1.39-11.594-1.406-17.047 1.572-1.794.982-3.588 1.7-4.849-.626-2.238-4.135-2.01-5.469 1.05-7.03 11.904-6.089 23.374-4.274 34.285 2.394 9.49 5.8 15.058 14.659 17.937 25.266 4.058 14.949 5.097 29.97.925 45.104-4.424 16.055-14.902 26.016-30.823 30.167-6.631 1.726-13.18.444-19.306-2.57-4.026-1.979-4.512-4.74-1.364-7.975 7.024-7.226 15.651-11.005 25.7-11.542.682-.037 1.37 0 2.615 0Zm-27.525 14.953a24.604 24.604 0 0 0 11.14 4.079c13.552 1.592 29.013-9.336 33.934-21.658 6.616-16.567 5.83-33.33 1.158-50.14-2.704-9.717-7.976-17.77-16.727-23.043-9.31-5.608-19.126-7.438-29.484-2.719-1.577.718-1.572 1.473-.646 2.543 9.459-4.083 18.593-4.342 27.245 1.732 1.055.739 2.094 2.43 2.037 3.628-.093 2.021-2.104 1.866-3.66 1.804-4.905-.196-9.082 1.758-12.86 4.575-2.47 1.84-4.476 4.192-5.417 7.33.403.263.667.48.966.62 7.795 3.789 16.614-.062 19.813-8.648 1.21-3.246 3.195-3.97 6.208-2.316 4.528 2.482 6.885 6.575 8.369 11.295.708 2.253.816 4.585-1.24 6.161-1.94 1.489-4.043.848-6.038-.279-1.923-1.086-3.954-1.478-6.627-.465 4.073 2.822 8.069 3.665 12.463 2.595 1.318-.32 2.755-1.215 3.535.64.714 1.686.745 3.324-1.05 4.57-2.982 2.073-6.233 2.874-9.784 2.155-2.274-.454-4.507-1.1-6.766-1.623-3.872-.894-7.718-1.1-11.636.424 7.366 7.092 19.327 8.26 27.732 2.859 2.285-1.468 3.629-1.003 4.44 1.602.28.9.6 1.84.6 2.76.005 5.573.284 11.176-.233 16.707-.506 5.417-2.517 10.529-5.396 15.202-.93 1.509-2.156 2.977-4.177 2.119-2.02-.858-1.68-2.59-1.297-4.42.418-1.995.76-4.13.506-6.12-1.033-8.203-8.606-16.205-17.238-18.195-.212 1.882-.745 3.753-.574 5.552 1.039 10.932 6.472 19.146 15.719 24.982.698.439.817 1.793 1.21 2.719-.89.263-1.908.956-2.652.734-9.237-2.807-17.725-.74-25.706 3.995-2.74 1.628-5.055 3.98-7.867 6.244m3.706 119.73c4.482-2 9.015-2.662 13.667-1.411a22.227 22.227 0 0 1 5.619 2.414c2.936 1.778 3.179 2.874 1.468 5.934-3.712 6.637-9.521 10.172-17.032 10.255-2.543.031-5.107-1.499-7.95-2.409l2.156 14.427c1.245-1.36 1.928-2.083 2.584-2.828 4.28-4.858 9.831-6.357 16.045-6.068 2.31.109 3.297 1.354 3.21 3.727-.326 8.89-5.78 14.959-15.15 16.722 3.793 4.533 11.505 5.484 15.496 1.328 2.543-2.646 4.46-5.97 6.285-9.2.59-1.05.32-2.885-.124-4.162-1.71-4.972-2.43-9.976-1.54-15.212.708-4.182 2.724-7.34 6.45-9.423 2.017-1.127 4.245-.491 4.901 1.649 4.239 13.806.134 32.74-11.444 42.329-4.182 3.463-9.216 5.065-14.597 5.05-7.366-.026-12.142-4.471-15.507-10.41-4.797-8.457-7.15-17.803-7.382-27.417-.3-12.457.093-24.935.486-37.398.222-7.107 1.81-14.008 5.391-20.262a34.115 34.115 0 0 1 4.105-5.588c1.954-2.197 3.277-2.068 4.91.372 4.084 6.079 6.038 12.799 6.394 20.139.496 10.183-2.533 19.15-8.446 27.447Zm18.081 4.404c-4.476-3.158-9.17-3.722-14.199-1.938-2.59.92-5.112 2.062-7.758 2.755-1.055.279-2.358-.388-3.541-.62.408-1.112.527-2.502 1.271-3.293 8.69-9.201 12.561-19.937 10.757-32.586a32.565 32.565 0 0 0-5.453-14.152c-1.246 1.969-2.388 3.571-3.319 5.287-3.97 7.33-4.667 15.373-5.07 23.488-.636 12.721-1.303 25.437.563 38.117 1.05 7.117 2.998 13.987 6.689 20.2 4.6 7.743 12.276 10.142 18.866 6.332-1.21 0-2.662.114-4.093-.02-6.146-.585-10.907-3.417-13.89-8.927-.398-.734-.475-1.64-.697-2.466.94-.145 1.995-.646 2.801-.383 7.826 2.585 16.081-4.274 14.742-12.726-4.254.533-8.487.972-11.739 4.28-1.266 1.287-2.424 2.673-3.644 4.006-2.207 2.42-3.752 2.182-4.869-.796-.48-1.282-.967-2.6-1.158-3.944-.687-4.843-1.106-9.728-1.933-14.545-.326-1.897.372-2.988 1.825-3.36.842-.217 2.222.382 2.91 1.07 2.44 2.44 5.07 4.15 8.694 3.417 5.443-1.101 9.625-3.908 12.245-9.201Zm14.944 2.584c-4.218 2.29-5.748 7.092-5.448 12.499.305 5.448 4.776 10.297 2.099 16.122 4.548-9.092 6.316-18.438 3.349-28.62m-282.207 33.82c-9.454-1.773-14.706-7.412-15.326-16.251-.227-3.21.646-4.203 3.929-4.275 6.254-.145 11.687 1.7 15.79 6.673.435.522.921 1.003 2.012 2.182l2.32-14.742c-.563.087-.868.04-.987.17-6.404 6.772-21.508.383-24.863-9.263-.573-1.649-.005-2.775 1.344-3.763 5.47-3.98 11.393-4.399 17.652-2.362.734.238 1.432.574 2.15.853.063.026.156-.02.42-.067-1.282-2.135-2.657-4.151-3.758-6.306-6.911-13.548-6.555-26.967.966-40.158 2.218-3.893 3.551-3.996 6.498-.528 4.962 5.841 7.314 12.835 8.1 20.31 1.493 14.137 2.14 28.325 1.049 42.525-.703 9.149-2.667 18.06-7.061 26.232-7.785 14.479-21.39 13.414-31.024 5.454-7.5-6.198-10.814-14.887-12.106-24.403-.76-5.614-.58-11.134 1.044-16.603.9-3.019 2.626-3.815 5.267-2.264 6.25 3.665 6.978 9.671 6.487 15.962-.238 3.034-1.354 6.001-2.016 9.01-.201.899-.568 1.984-.258 2.744 2.005 4.962 4.27 9.79 9.671 12.039 3.866 1.612 9.656.232 12.705-3.174Zm5.123-86.059c-.517.77-.925 1.303-1.251 1.887-7.47 13.352-5.624 30.652 4.487 42.18.91 1.033 1.959 1.963 2.734 3.085.48.698 1.034 2.031.718 2.44-.496.646-1.674.972-2.594 1.034-.9.067-1.866-.27-2.75-.59-2.099-.765-4.13-1.716-6.244-2.424-4.947-1.654-9.584-1.111-14.096 2.197 1.173 1.556 2.072 3.044 3.256 4.249 6.038 6.146 12.261 6.322 18.376.729.532-.486 1.912-.76 2.409-.419a4.652 4.652 0 0 1 1.82 2.652c.227 1.21-.125 2.553-.352 3.814-.957 5.304-1.8 10.643-3.03 15.885-.537 2.3-2.408 2.533-4.088.827-1.204-1.225-2.27-2.59-3.427-3.861-3.375-3.722-7.81-4.565-12.602-4.864-.093.584-.202.91-.191 1.23.336 8.436 7.262 13.475 15.352 11.268.713-.196 1.695.042 2.352.424.3.176.377 1.35.103 1.799-2.807 4.626-6.42 8.337-12.013 9.31-2.243.387-4.57.304-6.611.423 5.055 2.73 10.374 2.378 14.67-1.592a24.811 24.811 0 0 0 5.194-6.637c4.472-8.622 6.343-17.983 6.684-27.608.476-13.336.336-26.682-1.463-39.93-.863-6.379-3.127-12.282-7.454-17.518ZM88.33 322.39c.176-2.446.197-5.118.605-7.728.491-3.122 1.597-6.162 1.944-9.289.568-5.174-1.654-9.521-5.454-11.17-2.977 10.033-1.199 19.394 2.905 28.191Z"></path><path fill="#f6f6f6" d="M86.025 252.143c.33-.259.403-.305.46-.367 2.998-3.143 2.75-6.156.806-10.049-3.086-6.187-6.15-12.628-7.583-19.316-1.204-5.635-.858-11.915.207-17.652 1.51-8.147 7.402-13.326 14.67-16.908 1.706-.843 2.988-.083 3.634 1.36 1.736 3.897 3.876 7.748 4.776 11.857 2.977 13.579 2.31 27.194-1.184 40.608-2.052 7.882-5.779 15.083-10.426 21.766-4.466 6.425-9.288 12.623-13.444 19.244-10.659 16.99-10.783 34.312-.817 51.706a9.304 9.304 0 0 0 1.483 2.104c1.639 1.612 1.205 3.075-.237 4.435-2.207 2.078-3.515 2.191-5.335.49-3.618-3.38-5.96-7.587-7.298-12.276-3.174-11.097-3.613-22.397-1.53-33.717.625-3.401 2.248-6.621 3.385-9.847-1.183-1.256-2.77-2.445-3.649-4.032-.667-1.204-.977-3.194-.414-4.306.45-.883 2.44-1.194 3.795-1.354 1.142-.134 2.357.305 3.514.486l5.965-9.733c-6.57-4.859-9.531-11.94-10.456-20.113-.43-3.82.723-5.06 4.455-4.088 6.053 1.571 11.32 4.512 15.213 9.707Zm9.862-61.087c-6.859 3.871-11.66 8.45-12.896 15.59-1.401 8.089-.993 16.116 2.646 23.72 2.373 4.962 4.802 9.898 6.994 14.943.45 1.034.29 2.637-.196 3.701-.993 2.171-2.42 4.146-3.634 6.219-1.158 1.98-2.44 2.222-4.12.604-1.111-1.07-2.073-2.295-3.101-3.452-3.066-3.453-7.128-5.05-11.434-6.58-.295 7.009 3.995 15.041 9.51 18.256 2.585 1.51 2.503 2.073.755 4.57a88.907 88.907 0 0 0-6.114 10.028c-.983 1.897-2.047 2.32-3.877 1.659-1.075-.388-2.176-.708-3.262-1.055l-.341.62 5.438 4.71c4.083-5.826 8.322-11.977 12.68-18.05 4.977-6.943 9.634-14.07 12.343-22.238 4.678-14.111 5.236-28.512 2.254-43.016-.693-3.375-2.316-6.554-3.65-10.224ZM75.325 338.217l-7.004-14.013c.713 5.417 2.915 10.219 7.004 14.013m-8.839-37.584.43.083 2.377-9.454-.662-.145-2.15 9.516Zm329.162-48.402c3.701-4.983 8.637-7.8 14.267-9.527a12.623 12.623 0 0 1 2.522-.47c2.16-.191 3.262.734 3.055 3.003-.77 8.544-3.474 16.122-10.612 21.384l5.96 9.661c1.302-.14 2.817-.44 4.337-.434 3.168.01 4.507 1.923 3.06 4.781-.972 1.913-2.678 3.453-4.136 5.257 5.826 12.023 5.449 24.889 3.07 37.971-1.167 6.415-3.323 12.277-7.928 17.022-2.311 2.383-4.828 2.155-6.493-.76-.46-.801-.408-2.403.109-3.174 11.45-17.114 12.1-34.715 1.974-52.486-3.732-6.549-8.497-12.514-12.886-18.68-7.087-9.95-12.37-20.676-13.92-32.917-1.473-11.66-1.938-23.353 1.375-34.808.894-3.086 2.605-5.954 4.083-8.849.88-1.721 2.316-2.124 4.12-1.158 9.33 5.004 14.737 12.235 15.181 23.328.398 9.945-2.088 18.862-6.724 27.411a62.545 62.545 0 0 0-1.613 3.23q-2.409 5.092 1.194 10.21Zm-9.63-61.015c-1.132 2.641-2.393 4.91-3.09 7.345-2.606 9.04-2.725 18.252-2.1 27.608.77 11.63 4.115 22.32 10.416 32 5.903 9.072 12.245 17.86 18.174 26.461l5.5-4.76-.341-.626c-1.096.357-2.197.698-3.288 1.07-1.53.522-3.008.63-3.597-1.24-1.36-4.286-3.758-7.878-6.839-11.093-1.276-1.329-1.168-2.631.564-3.557 5.593-3.003 8.213-8.094 9.733-13.93.372-1.422.46-2.92.75-4.88l-5.066 2.063c-3.784 1.55-6.492 4.378-9.087 7.422-2.29 2.688-3.484 2.435-5.143-.594-1.034-1.881-2.41-3.582-3.319-5.515-.47-1.003-.677-2.492-.284-3.479 1.168-2.946 2.62-5.794 4.088-8.612 4.022-7.732 6.72-15.698 6.374-24.645-.367-9.532-4.595-16.288-13.44-21.043Zm27.437 132.869-7.06 14.21c4.078-3.867 6.264-8.628 7.06-14.21m-.356-32.927-.636.207 2.331 9.263.47-.109-2.16-9.366ZM235.539 121.15c-1.37-2.362-3.231-4.781-4.275-7.516-3.252-8.523.227-18.396 8.017-23.188.79-.486 2.445-.475 3.204.031 10.618 7.097 12.385 21.493 3.763 29.898-.232.227-.398.522-.91 1.21 5.697-1.557 10.773-2.828 13.43-8.545 1.954-4.208 9.686-5.98 14.835-3.8 8.777 3.717 14.52 10.504 18.634 18.852.998 2.026-.046 3.2-1.881 4.037-8.664 3.954-19.436 1.623-26.218-5.722-.863-.936-1.685-1.918-2.47-2.817l-6.477 3.225c1.783 2.983 3.82 5.826 5.246 8.948 1.355 2.956.135 4.393-3.246 4.616-6.104.403-11.992-4.26-13.91-11.145h-4.719c-1.923 6.136-5.763 10.106-12.266 11.041-1.075.155-2.233.005-3.318-.196-1.882-.357-2.523-1.52-2.047-3.417.78-3.117 2.703-6.177 6.218-9.531l-7.045-3.53c-.75.842-1.629 1.86-2.538 2.847-6.74 7.273-17.25 9.589-25.985 5.738-2.564-1.127-3.05-2.218-1.83-4.606 3.887-7.614 9.14-13.91 17.017-17.735 4.977-2.419 9.666-1.907 14.183 1.003a7.03 7.03 0 0 1 2.223 2.445c2.636 4.76 7.185 7.62 12.37 7.857Zm-11.124 15.62c4.703.28 8.265-2.294 10.327-6.93.626-1.407 1.582-3.242 2.817-3.692 4.347-1.581 7.81.171 9.775 4.384 2.031 4.352 6.058 6.833 9.935 6.053a13.078 13.078 0 0 0-5.22-7.128 7.754 7.754 0 0 1-2.094-2.166c-.864-1.406-.78-2.368 1.214-2.978 2.678-.816 5.366-1.876 7.749-3.328 2.925-1.784 3.975-1.923 5.98.832 3.422 4.698 7.981 7.5 13.652 8.508 3.447.615 6.776.191 10.307-1.608-1.908-2.801-3.334-5.773-5.552-7.94-3.096-3.023-6.658-5.623-10.255-8.063-2.58-1.752-5.562-1.39-8.436-.284-2.274.879-3.908 2.16-3.655 4.916.021.248-.31.615-.568.796-4.3 3.029-8.669 5.97-14.148 6.208-1.1.046-2.869-.373-3.225-1.112-.682-1.406-1.292-3.205.398-4.704 7.205-6.399 6.254-17.17-.61-23.508-1.447-1.339-2.424-1.354-3.882-.01-6.88 6.357-7.816 17.12-.625 23.508 1.69 1.504 1.095 3.298.408 4.704-.362.74-2.088 1.039-3.226 1.116a8.787 8.787 0 0 1-3.535-.6c-4.838-1.834-10.126-3.126-11.775-9.133-.135-.496-.744-.961-1.24-1.25-3.216-1.877-6.633-2.658-10.044-.77-2.693 1.488-5.36 3.147-7.697 5.132-3.546 3.008-5.954 6.942-8.156 11.212 3.592 1.473 6.9 2 10.4 1.333q8.684-1.649 13.692-8.89c1.334-1.929 2.859-2.084 4.87-1.024 2.708 1.427 5.427 2.951 8.322 3.872 2.238.713 2.372 1.674 1.333 3.287a7.237 7.237 0 0 1-1.974 1.938c-2.59 1.768-4.311 4.125-5.268 7.299Zm28.32 232.13c.745 5.541 1.319 10.757-.522 15.864-1.747 4.848-4.595 8.9-9.216 11.32-1.137.594-3.174.646-4.233.01-6.601-3.939-10.033-9.935-10.37-17.616-.134-3.132-.02-6.27-.02-8.684-4.156 1.241-8.803 3.004-13.615 3.908-2.445.46-5.272-.32-7.764-1.08-2.528-.77-2.905-2.481-1.794-4.916 5.774-12.628 16.334-18.774 29.386-20.867 13.13-2.104 24.982 1.499 34.71 10.596 3.107 2.905 5.143 7.02 7.402 10.747 1.21 1.995.315 3.649-2.145 4.61-4.921 1.918-9.816 1.262-14.587-.553-2.388-.904-4.647-2.134-7.231-3.344Zm-44.582.734c1.814.3 3.22.729 4.626.734 6.808.031 12.328-3.163 17.6-7.081.941-.698 2.415-.672 3.645-.982-.088 1.137.16 2.45-.316 3.39-3.98 7.873-2.76 18.536 3.33 24.812 3.488 3.597 4.166 3.633 7.701-.031 6.074-6.301 7.273-16.95 3.267-24.812-.465-.915-.32-2.14-.455-3.225 1.23.217 2.616.15 3.665.708 3.473 1.845 6.689 4.233 10.265 5.815 3.702 1.639 7.718 2.295 11.713.491-4.76-13.16-18.95-19.71-30.796-19.87-14.758-.196-27.008 5.304-34.23 20.051Zm163.423-166.333c.01 4.77-.258 10.043-3.365 14.406-1.887 2.646-4.46 4.931-7.097 6.875-1.913 1.416-2.91.677-3.458-1.747-1.132-5.004-2.6-9.956-3.288-15.016-1.044-7.682.895-14.835 5.17-21.328q.206-.33.47-.615c4.409-4.517 5.82-4.43 8.219 1.003 2.248 5.097 3.742 10.338 3.354 16.417Zm-10.638 17.626c8.927-5.153 9.465-24.594 3.195-33.815-7.77 6.275-8.126 23.4-3.195 33.815m-250.727-18.086c-.434-6.653 1.494-12.726 4.61-18.495 1.08-1.995 2.554-2.166 4.234-.842 5.36 4.243 7.392 10.219 8.193 16.654.946 7.547-.186 14.871-2.952 21.974-1.354 3.478-2.12 3.881-5.329 1.628-6.058-4.254-8.338-10.467-8.751-17.57-.067-1.111-.01-2.233-.01-3.35Zm10.54 18.019c4.946-9.563 4.713-27.944-3.252-33.67-6.415 9.996-5.293 29.1 3.251 33.67m214.736-50.563c.527 7.004-2.734 12.054-7.702 16.256-2.233 1.892-4.559 3.676-6.802 5.552-3.618 3.029-3.267 6.29.92 8.518 1.06.564 2.192.993 3.293 1.479 4.977 2.217 7.505 6.027 7.727 11.496.233 5.773-1.085 11.087-4.197 15.961a44.453 44.453 0 0 0-6.074 15.533c-1.437 7.428.626 14.313 3.701 20.976 1.334 2.89 2.874 5.686 4.084 8.622 2.27 5.505.367 9.614-5.262 11.646-1.938.698-3.944 1.22-5.898 1.866-2.16.713-3.174 2.155-2.93 4.512.361 3.526 1.519 6.704 3.886 9.372 1.427 1.612 2.936 3.148 4.435 4.693 4.973 5.117 7.097 11.269 6.694 18.345-.325 5.644-6.606 11.687-12.498 11.821-7.775.176-14.49-2.186-19.803-8.208a44.97 44.97 0 0 0-7.588-6.9c-3.08-2.177-4.399-1.758-6.792 1.178a49.106 49.106 0 0 0-2.993 4.192c-3.804 5.805-9.464 7.764-15.543 4.476-7.164-3.876-14.546-6.595-22.707-6.89-7.718-.274-15.254.595-22.279 4.13-1.918.967-3.789 2.026-5.743 2.926-5.918 2.719-11.346 1.173-15.062-4.197-1.122-1.624-2.202-3.288-3.453-4.818-2.202-2.698-3.525-3.112-6.4-1.142a37.734 37.734 0 0 0-7.293 6.45c-4.259 4.973-9.521 7.713-15.93 8.659-10.783 1.592-18.712-6.601-16.696-17.332a24.45 24.45 0 0 1 6.823-13.057c2.962-2.982 6.063-5.846 7.309-10.136 1.643-5.67.873-7.273-4.699-8.85-9.96-2.817-11.672-6.425-7.438-15.817 1.483-3.287 3.246-6.461 4.59-9.805 4.487-11.176 2.114-21.638-3.779-31.557-2.936-4.936-4.693-10.059-4.605-15.864.088-6.001 2.615-10.183 8.213-12.483 1.344-.553 2.72-1.142 3.903-1.97 3.008-2.113 3.184-4.863.444-7.298-2.377-2.114-4.874-4.104-7.386-6.053-9.594-7.448-9.49-19.45-4.89-27.721 4.725-8.493 13.667-11.243 22.304-6.518 3.48 1.902 6.384 4.88 9.454 7.484 1.701 1.443 3.06 3.303 4.823 4.642 3.773 2.864 7.97 2.275 10.943-1.437 1.396-1.742 2.533-3.69 3.83-5.51 3.551-4.988 8.694-6.472 14.277-3.913 3.04 1.396 5.81 3.417 8.9 4.657 3.138 1.256 6.478 2.316 9.817 2.699 4.238.48 8.56.17 12.85.237 5.427.088 10.286-1.602 14.856-4.44a45.487 45.487 0 0 1 6.631-3.432c5.071-2.088 10.003-.636 13.254 3.763 1.127 1.52 2.104 3.148 3.194 4.693 3.877 5.51 8.793 5.94 13.677 1.226 2.967-2.864 5.795-5.909 8.969-8.524 4.393-3.618 9.598-5.05 15.238-3.96 7.004 1.355 12.943 9.072 13.398 17.09.052.945.005 1.891.005 2.677Zm-3.158-.036c-.202-1.448-.326-2.905-.62-4.332-2.46-11.785-13.61-15.951-22.93-8.43-3.2 2.579-5.95 5.716-8.958 8.533-5.898 5.526-13.269 4.87-18.092-1.612-1.23-1.654-2.28-3.448-3.489-5.118-2.284-3.163-5.701-4.223-9.314-2.744a43.42 43.42 0 0 0-5.965 3.044c-4.73 2.848-9.702 4.782-15.321 4.72-5.055-.057-10.142.284-15.15-.202-3.51-.341-7.015-1.515-10.328-2.812-3.184-1.246-6.043-3.288-9.18-4.683-3.68-1.639-7.195-.517-9.532 2.74-1.256 1.747-2.352 3.607-3.65 5.323-1.865 2.471-4.196 4.27-7.365 4.828-4.404.776-7.883-.904-10.958-3.882-3.024-2.93-5.919-6.037-9.19-8.663-5.868-4.714-13.812-4.228-18.185.78-6.885 7.894-6.012 19.312 2 25.996 2.58 2.15 5.278 4.166 7.748 6.43 4.208 3.846 3.898 9.216-.765 12.524-1.731 1.225-3.799 1.975-5.716 2.936-3.107 1.561-4.725 3.97-4.958 7.542-.356 5.453 1.008 10.322 3.841 14.964 8.43 13.807 8.984 27.85.977 42.091a44.97 44.97 0 0 0-2.791 6.095c-1.225 3.215-.27 5.324 2.951 6.554 2.006.765 4.125 1.215 6.151 1.923 4.192 1.468 5.83 4.44 5.324 8.828-.687 5.924-3.82 10.41-8.006 14.318a22.123 22.123 0 0 0-7.03 13.43c-.869 5.892 3.763 12.224 9.754 12.183 5.572-.041 10.937-1.427 15.01-5.753 1.536-1.628 2.874-3.49 4.596-4.885 2.372-1.928 4.869-3.83 7.598-5.169 2.972-1.463 5.919-.78 8.08 1.964a134.394 134.394 0 0 1 4.3 5.79c2.869 4.078 6.446 5.132 10.886 3.116 1.328-.604 2.693-1.168 3.939-1.917 8.844-5.298 18.546-5.712 28.445-5.128 7.65.45 14.462 3.308 21.115 6.921 4.43 2.41 8.157 1.132 11.056-3.065a225.368 225.368 0 0 1 3.293-4.61c3.51-4.828 7.387-4.544 11.93-1.768 1.882 1.152 3.515 2.75 5.143 4.27 1.318 1.23 2.481 2.63 3.675 3.985 4.079 4.62 9.563 6.089 15.326 6.27 5.893.186 10.809-6.219 9.972-12.034a22.433 22.433 0 0 0-7.123-13.667c-4.12-3.84-7.227-8.24-7.924-14.08-.559-4.694 1.075-7.588 5.608-9.103 1.71-.568 3.479-.982 5.184-1.571 3.94-1.36 5.004-3.567 3.402-7.36-1.138-2.689-2.513-5.278-3.794-7.91-2.637-5.396-4.353-11.03-4.497-17.078-.202-8.286 2.507-15.75 6.72-22.697 2.816-4.652 4.176-9.526 3.793-14.98-.243-3.463-1.788-5.85-4.791-7.38-1.53-.781-3.174-1.35-4.668-2.187-5.825-3.252-6.523-9.387-1.546-13.77 2.456-2.161 5.071-4.136 7.573-6.24 4.104-3.452 6.44-7.774 6.451-13.268Z"></path><path fill="#ffffff" d="M72.79 484.52q-1.19 3-1.38 6.01-.2 3.02-.29 5.18-.1 2.16-.16 4.48-.1 5.41-.1 9.86 0 18.24 1.35 22.36.23.71.58 1.42H61.68q.99-2.19 1.19-3.96.19-1.78.35-4.23.39-5.06.39-11.66 0-6.61-.03-9.04-.04-2.43-.1-4.75-.23-11.32-1.35-14.38l-.45-1.29Z"></path><rect width="11.11" height="49.31" x="-5.55" y="-24.66" fill="none" rx="0" ry="0" transform="translate(67.74 509.68)"></rect><path fill="#ffffff" d="M114.65 536.41v4.51H74.3v-4.51Z"></path><rect width="40.35" height="4.51" x="-20.18" y="-2.25" fill="none" rx="0" ry="0" transform="translate(94.98 539.17)"></rect><path fill="#ffffff" d="M137.27 533.83q.42-2.03.42-3.24 0-1.21-.05-1.82-.05-.61-.13-1.3-.08-.7-.19-1.55-.11-.86-.21-1.98-.74-7.71-5.25-12.67-2-2.19-4.32-3.33-2.32-1.15-3.82-1.15t-2.3.2q-1.81 5.41-1.81 11.31 0 5.22.55 7.8.87 3.86 2.67 7.76h-9.63q.77-1.93.77-8.13 0-6.21.94-11.61.93-5.39 2.43-9.62 1.5-4.22 3.35-7.39 1.85-3.18 3.71-5.55 1.85-2.36 3.49-4.06 1.65-1.69 2.74-2.98h10.15q-1.38 1.58-1.38 4.42 0 1.29.42 4.22l.8 5.87q4.42 30.42 7.9 34.8Zm-14.53-30.26q1.25-.48 2.64-.48 1.39 0 2.5.19t2.21.64q2.35.91 3.93 2.87-1.58-8.28-1.94-10.12l-1.12-5.64-1.84 2.19q-3.87 4.65-6.38 10.35"></path><rect width="35.32" height="49.34" x="-17.66" y="-24.67" fill="none" rx="0" ry="0" transform="translate(131.36 509.69)"></rect><path fill="#ffffff" d="M156.89 495.71q-.12 4.7-.12 9.73 0 6.86.22 14.79.23 7.93.34 9.01.11 1.08.31 1.88.35 1.49 1.16 2.71h-9q1.23-1.74 1.47-3.74t.37-3.87q.26-3.8.26-10.21 0-7.77-.26-14.18l-.35-8.86q-.2-4.9-1.58-6.96-.52-.78-1.32-1.49h12.6q1.25 5.51 3.12 11.7l5.87 18.73 8.99-30.43h12.57q-1.58 1.39-2.06 2.84-.71 2.22-.81 5.16l-.23 5.7q-.41 10.02-.41 17.79 0 13.02 1.19 16.53.22.65.58 1.29h-10.15q.87-1.71.98-3.69.11-1.98.21-5.46.39-11.44.39-16.66 0-8.61-.17-12.8l-11.86 38.61-6.28-19.79Z"></path><rect width="43.15" height="49.31" x="-21.57" y="-24.66" fill="none" rx="0" ry="0" transform="translate(170.47 509.68)"></rect><path fill="#ffffff" d="M230.3 536.41v4.51h-40.34v-4.51Z"></path><rect width="40.34" height="4.51" x="-20.17" y="-2.25" fill="none" rx="0" ry="0" transform="translate(210.63 539.17)"></rect><path fill="#ffffff" d="m253 491.65.32-.68q.31-.68.65-2 .34-1.32.34-2.56t-.49-1.92h9.96q-.74 1.06-1.25 2.35l-1.2 2.94q-2.93 7.09-8.54 10.66.36 10.77 4.61 20.31 3.84 8.73 9.03 13.08h-11.12q-4.48-4.77-6.35-17.34-.71-4.61-1.19-10.83-.13-1.64-.99-2.53-.85-.88-2.4-.88-1.54 0-2.16.29-.61.29-.93.87-.55 1-.55 4.64 0 20.98 1.03 24.43.2.64.49 1.35h-10.8q1.03-2.45 1.21-4.09.18-1.65.3-3.52.26-3.8.26-10.21 0-7.7-.26-14.12l-.35-8.86q-.19-4.87-1.22-6.86-.42-.81-1.04-1.65H243q-1.29 1.68-1.68 3.13-.58 2.35-.58 4.69 0 2.33.1 3.37.09 1.03.45 1.7.74 1.29 2.64 1.31 1.9.02 3.18-.58 1.27-.6 2.36-1.6 1.1-1 2-2.27.9-1.27 1.53-2.62"></path><rect width="36.07" height="49.34" x="-18.04" y="-24.67" fill="none" rx="0" ry="0" transform="translate(248.9 509.66)"></rect><path fill="#ffffff" d="M287.11 533.83q.42-2.03.42-3.24 0-1.21-.05-1.82-.05-.61-.13-1.3-.08-.7-.19-1.55-.11-.86-.21-1.98-.74-7.71-5.25-12.67-2-2.19-4.32-3.33-2.32-1.15-3.82-1.15t-2.3.2q-1.81 5.41-1.81 11.31 0 5.22.55 7.8.87 3.86 2.67 7.76h-9.63q.77-1.93.77-8.13 0-6.21.94-11.61.93-5.39 2.43-9.62 1.5-4.22 3.35-7.39 1.85-3.18 3.71-5.55 1.85-2.36 3.49-4.06 1.65-1.69 2.74-2.98h10.15q-1.38 1.58-1.38 4.42 0 1.29.42 4.22l.8 5.87q4.42 30.42 7.9 34.8Zm-14.53-30.26q1.25-.48 2.64-.48 1.39 0 2.5.19t2.2.64q2.36.91 3.94 2.87-1.58-8.28-1.94-10.12l-1.13-5.64-1.83 2.19q-3.87 4.65-6.38 10.35"></path><rect width="35.32" height="49.34" x="-17.66" y="-24.67" fill="none" rx="0" ry="0" transform="translate(281.2 509.69)"></rect><path fill="#ffffff" d="M306.99 498.74q-.06 3.35-.06 7.63 0 6.09.22 13.94.23 7.85.36 8.93.13 1.08.32 1.88.32 1.32 1 2.71h-8.64q.97-1.97 1.18-3.85.21-1.89.34-3.76.25-3.8.25-10.21 0-7.77-.25-14.18l-.36-8.86q-.19-4.9-1.55-6.96-.54-.78-1.35-1.49h10.02q1.91 4.39 4.03 8.7l4.38 8.58 9.42 17.3q.03-2.03.03-4.35v-5.03q0-16.11-1.97-23.26-.39-1.32-.84-1.94l9.7-.03q-1.61 3.22-2.03 18.14-.06 2.33-.06 4.45l.03 2.71v13.15q0 8.34.13 10.89h-5.22l-9.35-17.4Z"></path><rect width="34.77" height="49.34" x="-17.39" y="-24.67" fill="none" rx="0" ry="0" transform="translate(316.34 509.66)"></rect><path fill="#ffffff" d="M349.62 484.52q-1.19 3-1.38 6.01-.2 3.02-.29 5.18-.1 2.16-.16 4.48-.1 5.41-.1 9.86 0 18.24 1.35 22.36.23.71.58 1.42h-11.11q.99-2.19 1.19-3.96.19-1.78.35-4.23.39-5.06.39-11.66 0-6.61-.03-9.04-.04-2.43-.1-4.75-.23-11.32-1.35-14.38l-.45-1.29Z"></path><rect width="11.11" height="49.31" x="-5.55" y="-24.66" fill="none" rx="0" ry="0" transform="translate(344.57 509.68)"></rect><path fill="#ffffff" d="M362.93 516.75q-.42 3.35-.42 5.33 0 1.99.48 3.66.49 1.68 1.39 2.9 1.93 2.61 4.9 2.61 5.67 0 5.67-6.25 0-5.03-5.83-10.67l-3.35-3.25q-4.42-4.26-6.03-6.83-3.19-5.1-3.19-10.12 0-4.1 2.64-6.87 3.19-3.38 9.19-3.38 2.35 0 3.54.22 2.22.42 2.97.42 1.86 0 2.9-1.16.38-.42.83-1.09 2.36 1.32 2.36 9.7 0 5.35-1.07 7.89-.35.87-.8 1.1-.52-4.87-3.16-8.7-3.09-4.51-7.16-4.51-3.48 0-4.28 3.19-.23.9-.23 2.24 0 1.33.81 3.04.8 1.71 2.11 3.4 1.3 1.69 3.01 3.4 5.16 5.29 6.85 7.16 1.69 1.86 3.01 3.86 2.9 4.48 2.9 8.67 0 5.06-3.93 8.38-4.06 3.38-10.44 3.38-5.28 0-9.09-2.64-4.19-2.9-4.19-7.67 1.26-4.48 5.48-6.57 1.13-.58 2.13-.84"></path><rect width="27.65" height="52.2" x="-13.82" y="-26.1" fill="none" rx="0" ry="0" transform="translate(369.65 508.87)"></rect><path fill="#ffffff" d="m409.53 514.66-.04-8.83q0-1.81-.58-2.45-1.06-1.2-3.93-1.2h-5.09q-4 0-4.38 2.26-.1.64-.1 1.39l-.03 9.66q0 12.51 1.29 15.67.51 1.22 1.61 2.67h-12.09q1.03-2.45 1.21-4.09.18-1.65.37-4.06.36-5.06.36-11.57 0-6.51-.04-8.98l-.06-4.82q-.23-9.76-.61-11.71-.39-1.95-.65-2.63l-.58-1.45h12.09q-2.32 2.58-2.58 6.96-.1 1.33-.1 2.78 0 1.45.28 2.27.27.82.92 1.21.87.58 4.09.58h3.06q3.29 0 4.06-.49 1.29-.83 1.29-3.64 0-6.86-2.71-9.67h12.09q-.97 2.13-1.18 3.94-.21 1.8-.3 3.46-.1 1.66-.2 3.85-.09 2.19-.16 4.54-.1 5.48-.1 9.93 0 18.08 1.36 22.14.22.68.58 1.45h-12.09q1.61-2.16 1.97-3.72.35-1.57.55-3.69.42-4.09.42-11.76"></path><rect width="32.49" height="49.31" x="-16.25" y="-24.66" fill="none" rx="0" ry="0" transform="translate(402.94 509.68)"></rect><path fill="none" stroke="#c4c4c4" stroke-width="2.79" d="M214.46 221.39q-1.2-2.89-1.2-6.83 0-3.93.3-6.44.3-2.52.8-4.56 1.19-4.58 2.94-4.58h43.87q2.89 0 3.89 8.56.25 2.39.25 4.93 0 5.98-1.3 8.92-4.28-13.3-11.1-17.04-1.55-.89-3.04-.89t-2.34.77q-.85.77-1.4 2.47-.89 2.98-.89 7.17v18.67l.05 15.24v14.45q0 4.88 1.27 7.19 1.27 2.32 2.59 3.52 1.32 1.19 3.11 2.24h-25.45q3.59-2.94 4.58-4.83 1.84-3.44 1.84-8.12v-44.88q0-7.82-.59-10.08-.6-2.27-1.45-3.04-.84-.77-2.34-.77-1.49 0-3.04.87-1.54.87-3.01 2.29-1.47 1.42-2.79 3.29t-2.41 3.86q-2.15 3.93-3.14 7.62Z"></path><path fill="#ffffff" d="M214.46 221.39q-1.2-2.89-1.2-6.83 0-3.93.3-6.44.3-2.52.8-4.56 1.19-4.58 2.94-4.58h43.87q2.89 0 3.89 8.56.25 2.39.25 4.93 0 5.98-1.3 8.92-4.28-13.3-11.1-17.04-1.55-.89-3.04-.89t-2.34.77q-.85.77-1.4 2.47-.89 2.98-.89 7.17v18.67l.05 15.24v14.45q0 4.88 1.27 7.19 1.27 2.32 2.59 3.52 1.32 1.19 3.11 2.24h-25.45q3.59-2.94 4.58-4.83 1.84-3.44 1.84-8.12v-44.88q0-7.82-.59-10.08-.6-2.27-1.45-3.04-.84-.77-2.34-.77-1.49 0-3.04.87-1.54.87-3.01 2.29-1.47 1.42-2.79 3.29t-2.41 3.86q-2.15 3.93-3.14 7.62"></path><rect width="52.05" height="76.2" x="-26.02" y="-38.1" fill="none" rx="0" ry="0" transform="translate(239.79 237.58)"></rect></svg></svg>